<svg width="633" height="173" viewBox="0 0 633 173" fill="none" xmlns="http://www.w3.org/2000/svg">
<circle cx="19" cy="19" r="18.5" fill="white" stroke="white"/>
<circle cx="157" cy="19" r="18.5" fill="white" stroke="white"/>
<circle cx="111" cy="19" r="18.5" fill="white" stroke="white"/>
<circle cx="65" cy="19" r="18.5" fill="white" stroke="white"/>
<circle cx="19" cy="154" r="18.5" fill="white" stroke="white"/>
<circle cx="157" cy="154" r="18.5" fill="white" stroke="white"/>
<circle cx="111" cy="154" r="18.5" fill="white" stroke="white"/>
<circle cx="65" cy="154" r="18.5" fill="white" stroke="white"/>
<circle cx="19" cy="109" r="18.5" fill="white" stroke="white"/>
<circle cx="157" cy="109" r="18.5" fill="white" stroke="white"/>
<circle cx="111" cy="109" r="16" stroke="white" stroke-width="6"/>
<circle cx="65" cy="109" r="18.5" fill="white" stroke="white"/>
<circle cx="19" cy="64" r="18.5" fill="white" stroke="white"/>
<circle cx="157" cy="64" r="18.5" fill="white" stroke="white"/>
<circle cx="111" cy="64" r="18.5" fill="white" stroke="white"/>
<circle cx="65" cy="64" r="18.5" fill="white" stroke="white"/>
<path d="M265.364 80.5682L252.068 81.3864C251.841 80.25 251.352 79.2273 250.602 78.3182C249.852 77.3864 248.864 76.6477 247.636 76.1023C246.432 75.5341 244.989 75.25 243.307 75.25C241.057 75.25 239.159 75.7273 237.614 76.6818C236.068 77.6136 235.295 78.8636 235.295 80.4318C235.295 81.6818 235.795 82.7386 236.795 83.6023C237.795 84.4659 239.511 85.1591 241.943 85.6818L251.42 87.5909C256.511 88.6364 260.307 90.3182 262.807 92.6364C265.307 94.9545 266.557 98 266.557 101.773C266.557 105.205 265.545 108.216 263.523 110.807C261.523 113.398 258.773 115.42 255.273 116.875C251.795 118.307 247.784 119.023 243.239 119.023C236.307 119.023 230.784 117.58 226.67 114.693C222.58 111.784 220.182 107.83 219.477 102.83L233.761 102.08C234.193 104.193 235.239 105.807 236.898 106.92C238.557 108.011 240.682 108.557 243.273 108.557C245.818 108.557 247.864 108.068 249.409 107.091C250.977 106.091 251.773 104.807 251.795 103.239C251.773 101.92 251.216 100.841 250.125 100C249.034 99.1364 247.352 98.4773 245.08 98.0227L236.011 96.2159C230.898 95.1932 227.091 93.4205 224.591 90.8977C222.114 88.375 220.875 85.1591 220.875 81.25C220.875 77.8864 221.784 74.9886 223.602 72.5568C225.443 70.125 228.023 68.25 231.341 66.9318C234.682 65.6136 238.591 64.9545 243.068 64.9545C249.682 64.9545 254.886 66.3523 258.682 69.1477C262.5 71.9432 264.727 75.75 265.364 80.5682ZM303.554 65.6364V76.5455H272.02V65.6364H303.554ZM279.179 53.0909H293.702V101.909C293.702 103.25 293.906 104.295 294.315 105.045C294.724 105.773 295.293 106.284 296.02 106.58C296.77 106.875 297.634 107.023 298.611 107.023C299.293 107.023 299.974 106.966 300.656 106.852C301.338 106.716 301.861 106.614 302.224 106.545L304.509 117.352C303.781 117.58 302.759 117.841 301.44 118.136C300.122 118.455 298.52 118.648 296.634 118.716C293.134 118.852 290.065 118.386 287.429 117.318C284.815 116.25 282.781 114.591 281.327 112.341C279.872 110.091 279.156 107.25 279.179 103.818V53.0909ZM313.014 118V65.6364H327.094V74.7727H327.639C328.594 71.5227 330.196 69.0682 332.446 67.4091C334.696 65.7273 337.287 64.8864 340.219 64.8864C340.946 64.8864 341.73 64.9318 342.571 65.0227C343.412 65.1136 344.151 65.2386 344.787 65.3977V78.2841C344.105 78.0795 343.162 77.8977 341.957 77.7386C340.753 77.5795 339.651 77.5 338.651 77.5C336.514 77.5 334.605 77.9659 332.923 78.8977C331.264 79.8068 329.946 81.0795 328.969 82.7159C328.014 84.3523 327.537 86.2386 327.537 88.375V118H313.014ZM373.517 119.023C368.222 119.023 363.642 117.898 359.778 115.648C355.938 113.375 352.972 110.216 350.881 106.17C348.79 102.102 347.744 97.3864 347.744 92.0227C347.744 86.6136 348.79 81.8864 350.881 77.8409C352.972 73.7727 355.938 70.6136 359.778 68.3636C363.642 66.0909 368.222 64.9545 373.517 64.9545C378.812 64.9545 383.381 66.0909 387.222 68.3636C391.085 70.6136 394.062 73.7727 396.153 77.8409C398.244 81.8864 399.29 86.6136 399.29 92.0227C399.29 97.3864 398.244 102.102 396.153 106.17C394.062 110.216 391.085 113.375 387.222 115.648C383.381 117.898 378.812 119.023 373.517 119.023ZM373.585 107.773C375.994 107.773 378.006 107.091 379.619 105.727C381.233 104.341 382.449 102.455 383.267 100.068C384.108 97.6818 384.528 94.9659 384.528 91.9205C384.528 88.875 384.108 86.1591 383.267 83.7727C382.449 81.3864 381.233 79.5 379.619 78.1136C378.006 76.7273 375.994 76.0341 373.585 76.0341C371.153 76.0341 369.108 76.7273 367.449 78.1136C365.813 79.5 364.574 81.3864 363.733 83.7727C362.915 86.1591 362.506 88.875 362.506 91.9205C362.506 94.9659 362.915 97.6818 363.733 100.068C364.574 102.455 365.813 104.341 367.449 105.727C369.108 107.091 371.153 107.773 373.585 107.773ZM423.256 87.7273V118H408.733V65.6364H422.574V74.875H423.188C424.347 71.8295 426.29 69.4205 429.017 67.6477C431.744 65.8523 435.051 64.9545 438.938 64.9545C442.574 64.9545 445.744 65.75 448.449 67.3409C451.153 68.9318 453.256 71.2045 454.756 74.1591C456.256 77.0909 457.006 80.5909 457.006 84.6591V118H442.483V87.25C442.506 84.0455 441.688 81.5455 440.028 79.75C438.369 77.9318 436.085 77.0227 433.176 77.0227C431.222 77.0227 429.494 77.4432 427.994 78.2841C426.517 79.125 425.358 80.3523 424.517 81.9659C423.699 83.5568 423.278 85.4773 423.256 87.7273ZM483.384 118.989C480.043 118.989 477.065 118.409 474.452 117.25C471.838 116.068 469.77 114.33 468.247 112.034C466.747 109.716 465.997 106.83 465.997 103.375C465.997 100.466 466.531 98.0227 467.599 96.0455C468.668 94.0682 470.122 92.4773 471.963 91.2727C473.804 90.0682 475.895 89.1591 478.236 88.5455C480.599 87.9318 483.077 87.5 485.668 87.25C488.713 86.9318 491.168 86.6364 493.031 86.3636C494.895 86.0682 496.247 85.6364 497.088 85.0682C497.929 84.5 498.349 83.6591 498.349 82.5455V82.3409C498.349 80.1818 497.668 78.5114 496.304 77.3295C494.963 76.1477 493.054 75.5568 490.577 75.5568C487.963 75.5568 485.884 76.1364 484.338 77.2955C482.793 78.4318 481.77 79.8636 481.27 81.5909L467.838 80.5C468.52 77.3182 469.861 74.5682 471.861 72.25C473.861 69.9091 476.44 68.1136 479.599 66.8636C482.781 65.5909 486.463 64.9545 490.645 64.9545C493.554 64.9545 496.338 65.2955 498.997 65.9773C501.679 66.6591 504.054 67.7159 506.122 69.1477C508.213 70.5795 509.861 72.4205 511.065 74.6705C512.27 76.8977 512.872 79.5682 512.872 82.6818V118H499.099V110.739H498.69C497.849 112.375 496.724 113.818 495.315 115.068C493.906 116.295 492.213 117.261 490.236 117.966C488.259 118.648 485.974 118.989 483.384 118.989ZM487.543 108.966C489.679 108.966 491.565 108.545 493.202 107.705C494.838 106.841 496.122 105.682 497.054 104.227C497.986 102.773 498.452 101.125 498.452 99.2841V93.7273C497.997 94.0227 497.372 94.2955 496.577 94.5455C495.804 94.7727 494.929 94.9886 493.952 95.1932C492.974 95.375 491.997 95.5455 491.02 95.7045C490.043 95.8409 489.156 95.9659 488.361 96.0795C486.656 96.3295 485.168 96.7273 483.895 97.2727C482.622 97.8182 481.634 98.5568 480.929 99.4886C480.224 100.398 479.872 101.534 479.872 102.898C479.872 104.875 480.588 106.386 482.02 107.432C483.474 108.455 485.315 108.966 487.543 108.966ZM524.139 118V65.6364H537.98V74.875H538.594C539.685 71.8068 541.503 69.3864 544.048 67.6136C546.594 65.8409 549.639 64.9545 553.185 64.9545C556.776 64.9545 559.832 65.8523 562.355 67.6477C564.878 69.4205 566.56 71.8295 567.401 74.875H567.946C569.014 71.875 570.946 69.4773 573.741 67.6818C576.56 65.8636 579.889 64.9545 583.73 64.9545C588.616 64.9545 592.582 66.5114 595.628 69.625C598.696 72.7159 600.23 77.1023 600.23 82.7841V118H585.741V85.6477C585.741 82.7386 584.969 80.5568 583.423 79.1023C581.878 77.6477 579.946 76.9205 577.628 76.9205C574.991 76.9205 572.935 77.7614 571.457 79.4432C569.98 81.1023 569.241 83.2955 569.241 86.0227V118H555.162V85.3409C555.162 82.7727 554.423 80.7273 552.946 79.2045C551.491 77.6818 549.571 76.9205 547.185 76.9205C545.571 76.9205 544.116 77.3295 542.821 78.1477C541.548 78.9432 540.537 80.0682 539.787 81.5227C539.037 82.9545 538.662 84.6364 538.662 86.5682V118H524.139ZM611.702 118V65.6364H626.224V118H611.702ZM618.997 58.8864C616.838 58.8864 614.986 58.1705 613.44 56.7386C611.918 55.2841 611.156 53.5455 611.156 51.5227C611.156 49.5227 611.918 47.8068 613.44 46.375C614.986 44.9205 616.838 44.1932 618.997 44.1932C621.156 44.1932 622.997 44.9205 624.52 46.375C626.065 47.8068 626.838 49.5227 626.838 51.5227C626.838 53.5455 626.065 55.2841 624.52 56.7386C622.997 58.1705 621.156 58.8864 618.997 58.8864Z" fill="white"/>
</svg>
